<svg xmlns="http://www.w3.org/2000/svg" xmlns:xlink="http://www.w3.org/1999/xlink" version="1.1" id="Layer_1" x="0px" y="0px" width="75.7575757576px" height="100px" viewBox="0 0 100 132.619" enable-background="new 0 0 100 132.619" xml:space="preserve">
<path d="M80.287,21.685V0H2.977C1.333,0,0,1.333,0,2.977v104.982v21.685c0,1.644,1.333,2.976,2.976,2.976h16.737h77.31  c1.645,0,2.977-1.332,2.977-2.976v-0.001V24.661H83.264C81.621,24.661,80.287,23.329,80.287,21.685z M12.62,21.846  c0-1.644,1.333-2.977,2.976-2.977h30.357c1.645,0,2.977,1.333,2.977,2.977v0.893c0,1.644-1.332,2.977-2.977,2.977H15.596  c-1.644,0-2.976-1.333-2.976-2.977V21.846z M90.596,116.489c0,1.644-1.332,2.976-2.977,2.976H15.596  c-1.644,0-2.976-1.332-2.976-2.976v-0.894c0-1.644,1.333-2.976,2.976-2.976h72.023c1.645,0,2.977,1.332,2.977,2.976V116.489z   M90.596,97.739c0,1.644-1.332,2.976-2.977,2.976H15.596c-1.644,0-2.976-1.332-2.976-2.976v-0.894c0-1.644,1.333-2.976,2.976-2.976  h72.023c1.645,0,2.977,1.332,2.977,2.976V97.739z M90.596,78.989c0,1.644-1.332,2.976-2.977,2.976H15.596  c-1.644,0-2.976-1.332-2.976-2.976v-0.894c0-1.644,1.333-2.976,2.976-2.976h72.023c1.645,0,2.977,1.332,2.977,2.976V78.989z   M90.596,60.239c0,1.644-1.332,2.976-2.977,2.976H15.596c-1.644,0-2.976-1.332-2.976-2.976v-0.894c0-1.644,1.333-2.976,2.976-2.976  h72.023c1.645,0,2.977,1.332,2.977,2.976V60.239z M90.596,40.596v0.893c0,1.644-1.332,2.977-2.977,2.977H15.596  c-1.644,0-2.976-1.333-2.976-2.977v-0.893c0-1.644,1.333-2.977,2.976-2.977h72.023C89.264,37.619,90.596,38.952,90.596,40.596z"/>
<path d="M97.023,0H80.287L100,24.661V2.977C100,1.333,98.668,0,97.023,0z"/>
</svg>